<svg width="604" height="342" viewBox="0 0 604 342" fill="none" xmlns="http://www.w3.org/2000/svg">
<path d="M471.2 89.3998L429.4 11.4998C425 3.29983 414.9 0.299836 406.9 4.79984L330.4 47.4998C326.5 49.7998 323.6 53.3998 322.3 57.7998L301.8 129.1C299.3 137.6 304.2 146.6 312.6 149.1L433 183.4C441.4 185.9 450.2 181 452.7 172.5L472.7 102.6C473.9 98.3998 473.2 93.3998 471.2 89.3998Z" fill="#231F20"/>
<path d="M378.4 105.3C378.4 105.3 365.3 79.7002 356.8 79.7002C350.2 79.7002 349.7 86.7002 349.7 103.4C349.7 120.1 350.6 126.7 356.8 126.7C365.2 126.6 378.4 105.3 378.4 105.3ZM395.3 83.9002C402 74.2002 408.1 64.6002 419.5 64.6002C432.1 64.6002 438.9 75.1002 439 84.0002V140.8H424.9L424.8 87.0002C424.8 79.6002 418.9 79.6002 418.8 79.6002C414 79.6002 405.2 91.6002 395.4 104.9V140.7H381.1V124.1C381.1 124.1 371.7 140.7 357.5 140.7C341.4 140.7 336 129.6 336 103.2C336 78.0002 339.5 64.5002 356.8 64.5002C369.9 64.5002 381.1 83.6002 381.1 83.6002V71.5002L395.5 52.2002C395.3 52.3002 395.2 84.0002 395.3 83.9002Z" fill="white"/>
<path d="M24.4 244.9H10.7L8.7 249.3H0V248L15.7 214H19.5L35.2 248V249.3H26.5L24.4 244.9ZM17.5 228.1L13.6 237.3H21.5L17.5 228.1Z" fill="#231F20"/>
<path d="M69.1999 214.1C76.3999 214.1 84.1999 218 85.5999 227.3C82.5999 227.3 79.8999 227.3 76.7999 227.3C75.5999 223.8 72.8999 222.2 69.1999 222.2C63.9999 222.2 60.4999 226.1 60.4999 231.9C60.4999 237 63.8999 241.5 69.1999 241.6C72.9999 241.6 75.9999 239.7 76.9999 236C79.9999 236 82.6999 236 85.7999 236C84.4999 245.9 76.6999 249.7 69.2999 249.7C60.3999 249.8 51.4999 243.8 51.3999 231.9C51.3999 220.1 60.2999 214.1 69.1999 214.1Z" fill="#231F20"/>
<path d="M122 248V249.3H112L106 239H101.4V249.3C98.4 249.3 95.4 249.3 92.5 249.3C92.5 237.7 92.5 226.1 92.5 214.4C97.5 214.4 102.7 214.4 107.8 214.4C121.5 214.4 124 230.9 115.2 236.9L122 248ZM107.8 222.4C105.7 222.4 103.5 222.4 101.4 222.4C101.4 225.2 101.4 228.2 101.4 231H107.8C112.6 231.1 112.9 222.5 107.8 222.4Z" fill="#231F20"/>
<path d="M149.1 222.4C143.9 222.4 141.3 222.4 136.2 222.4V227.3H148.1C148.1 229.9 148.1 232.6 148.1 235.2H136.2C136.2 237.2 136.2 239.2 136.2 241.3C141.3 241.3 144.3 241.3 149.5 241.3C149.5 243.9 149.5 246.6 149.5 249.2C141.3 249.2 135.4 249.2 127.3 249.2C127.3 237.5 127.3 225.9 127.3 214.3C135.4 214.3 140.9 214.3 149.1 214.3C149.1 217.1 149.1 219.8 149.1 222.4Z" fill="#231F20"/>
<path d="M177.3 244.9H163.6L161.6 249.3H152.9V248L168.6 214H172.4L188.1 248V249.3H179.4L177.3 244.9ZM170.4 228.1L166.5 237.3H174.4L170.4 228.1Z" fill="#231F20"/>
<path d="M187.3 222.4C187.3 219.7 187.3 217.1 187.3 214.4H213.2C213.2 217 213.2 219.7 213.2 222.4H204.7V249.3C201.8 249.3 198.8 249.3 195.9 249.3V222.4H187.3Z" fill="#231F20"/>
<path d="M234.2 241.5C234.2 244.4 234.2 246.3 234.2 249.3C228.3 249.3 222.5 249.3 216.5 249.3C216.5 246.3 216.5 244.4 216.5 241.5H220.9V222.2H216.8C216.8 219.2 216.8 217.4 216.8 214.4C222.5 214.4 228.1 214.4 233.8 214.4C233.8 217.3 233.8 219.2 233.8 222.2H229.7V241.5H234.2Z" fill="#231F20"/>
<path d="M253 234.2H253.2L261.2 214.4H269.8V215.7L255 249.7H251.2L236.3 215.8V214.5H244.9L253 234.2Z" fill="#231F20"/>
<path d="M296.8 222.4C291.6 222.4 289 222.4 283.9 222.4V227.3H295.8C295.8 229.9 295.8 232.6 295.8 235.2H283.9C283.9 237.2 283.9 239.2 283.9 241.3C289 241.3 292 241.3 297.2 241.3C297.2 243.9 297.2 246.6 297.2 249.2C289 249.2 283.1 249.2 275 249.2C275 237.5 275 225.9 275 214.3C283.1 214.3 288.6 214.3 296.8 214.3C296.8 217.1 296.8 219.8 296.8 222.4Z" fill="#231F20"/>
<path d="M344.8 214.5H348V249.5C345 249.5 341.9 249.5 338.9 249.5V234L331.5 241.8H330.5L323.1 234V249.5C320.1 249.5 317 249.5 314 249.5V214.5H317.3L330.9 229.6L344.8 214.5Z" fill="#231F20"/>
<path d="M378.6 222.6C373.4 222.6 370.8 222.6 365.7 222.6V227.5H377.5C377.5 230.1 377.5 232.8 377.5 235.4H365.7C365.7 237.4 365.7 239.4 365.7 241.5C370.8 241.5 373.8 241.5 379 241.5C379 244.1 379 246.8 379 249.4C370.8 249.4 364.9 249.4 356.8 249.4C356.8 237.8 356.8 226.1 356.8 214.5C364.9 214.5 370.4 214.5 378.6 214.5C378.6 217.2 378.6 219.9 378.6 222.6Z" fill="#231F20"/>
<path d="M399.9 249.5H386.8V214.6H399.9C422.6 214.7 422.6 249.4 399.9 249.5ZM395.7 241.3H399.9C411 241.3 411 222.7 399.9 222.7H395.7V241.3Z" fill="#231F20"/>
<path d="M438.5 241.6C438.5 244.5 438.5 246.4 438.5 249.4C432.6 249.4 426.7 249.4 420.8 249.4C420.8 246.4 420.8 244.5 420.8 241.6H425.2V222.3H421.1C421.1 219.3 421.1 217.5 421.1 214.5C426.8 214.5 432.4 214.5 438.1 214.5C438.1 217.4 438.1 219.3 438.1 222.3H434V241.6H438.5Z" fill="#231F20"/>
<path d="M464.4 245.1H450.7L448.7 249.5H440V248.2L455.7 214.2H459.5L475.2 248.2V249.5H466.5L464.4 245.1ZM457.5 228.3L453.6 237.5H461.5L457.5 228.3Z" fill="#231F20"/>
<path d="M524.2 214.5H527.4V249.5C524.4 249.5 521.3 249.5 518.3 249.5V234L510.9 241.8H509.9L502.5 234V249.5C499.5 249.5 496.4 249.5 493.4 249.5V214.5H496.7L510.3 229.6L524.2 214.5Z" fill="#231F20"/>
<path d="M534.1 232.1C534.1 208 569.9 208 569.9 232.1C569.9 256.2 534.1 256.2 534.1 232.1ZM560.7 232.1C560.7 219.5 543.2 219.5 543.2 232.1C543.3 244.7 560.7 244.7 560.7 232.1Z" fill="#231F20"/>
<path d="M599.6 231.3C602.4 232.7 603.8 235.3 603.8 238.4C603.7 244.5 600.1 249.4 592.9 249.4H576.6V214.5H591.5C597.5 214.5 602.4 219.2 602.4 225.2C602.3 227.4 601.3 229.9 599.6 231.3ZM585.2 222.6V228.3H590.8C594.3 228.3 594.3 222.6 590.7 222.6H585.2ZM585.2 235.6V241.5H592.3C595.9 241.5 595.8 235.6 592.2 235.6H585.2Z" fill="#231F20"/>
<path d="M125.3 280.3H101.2V327.4H125.3V280.3Z" fill="#4DC1EA"/>
<path d="M203.4 280.3H179.3V338H203.4V280.3Z" fill="#1BA99E"/>
<path d="M277.5 280.3H253.4V309.2H277.5V280.3Z" fill="#1BA99E"/>
<path d="M352.5 280.3H328.4V327.4H352.5V280.3Z" fill="#EB5C45"/>
<path d="M427.4 280.3H403.3V341.5H427.4V280.3Z" fill="#EB5C45"/>
<path d="M502.4 280.3H478.3V314.8H502.4V280.3Z" fill="#F9B149"/>
<path d="M121.7 88.5998C136.3 95.9998 144 110.7 144 127.1C144 157.9 124 181.8 87 181.8H0.5V2.2998H79.8C113.2 2.2998 136.6 24.0998 136.6 57.4998C136.6 68.4998 130.7 81.3998 121.7 88.5998ZM47.5 43.0998V73.0998H76.5C85.5 73.0998 90.1 66.1998 90.4 58.9998C90.7 50.9998 86 43.0998 76.5 43.0998H47.5ZM47.5 111.1V140.9H83.7C92.7 140.9 96.8 134.2 97.6 127C97.9 121.6 95.5 116 91.2 112.9C88.9 111.9 86.6 111.1 83.5 111.1H47.5Z" fill="#231F20"/>
<path d="M205.6 128.1C205.6 139.7 213.6 145.8 225.6 145.8C238.2 145.8 245.4 136.3 245.6 124.2C244.8 96.7 220.7 97.7 199.9 99.8V93.9L226.6 41H171.4V3H286V9.7L253.1 70.3C281.3 77.7 289.8 100.6 289.8 124C289.8 154.6 268 186.1 226.4 186.1C191.5 186.1 165.3 163.8 164.5 128.1H205.6V128.1Z" fill="#231F20"/>
<path d="M520 58.7998H481.2C480.4 21.7998 502.8 0.299805 538.7 0.299805C587.2 0.299805 610.9 48.5998 581.3 91.9998C581.3 92.4998 580.8 93.9998 546.4 141.3H603.4V182.9H479.1V172.9L541.5 82.2998C553.8 63.7998 557.9 42.4998 537.1 41.6998C528.7 41.2998 520 46.6998 520 58.7998Z" fill="#231F20"/>
</svg>
