<svg width="37" height="38" viewBox="0 0 37 38" fill="none" xmlns="http://www.w3.org/2000/svg">
<path d="M0.257812 15.3398C0.257812 17.4362 0.648438 19.4023 1.42969 21.2383C2.21094 23.0742 3.29818 24.6888 4.69141 26.082C6.08464 27.4753 7.69271 28.5625 9.51562 29.3438C11.3516 30.125 13.3177 30.5156 15.4141 30.5156C16.9375 30.5156 18.3828 30.3008 19.75 29.8711C21.1172 29.4414 22.3867 28.8424 23.5586 28.0742L31.8008 36.3164C32.0872 36.6029 32.4128 36.8112 32.7773 36.9414C33.1549 37.0846 33.5391 37.1562 33.9297 37.1562C34.5026 37.1562 35.0104 37.0195 35.4531 36.7461C35.8958 36.4857 36.2474 36.1276 36.5078 35.6719C36.7682 35.2292 36.8984 34.7279 36.8984 34.168C36.8984 33.7773 36.8268 33.3997 36.6836 33.0352C36.5404 32.6706 36.332 32.3451 36.0586 32.0586L27.8945 23.875C28.7409 22.6641 29.3984 21.3359 29.8672 19.8906C30.349 18.4453 30.5898 16.9284 30.5898 15.3398C30.5898 13.2565 30.1927 11.2969 29.3984 9.46094C28.6172 7.625 27.5299 6.01693 26.1367 4.63672C24.7565 3.24349 23.1484 2.14974 21.3125 1.35547C19.4766 0.561198 17.5104 0.164062 15.4141 0.164062C13.3177 0.164062 11.3516 0.561198 9.51562 1.35547C7.69271 2.14974 6.08464 3.24349 4.69141 4.63672C3.29818 6.01693 2.21094 7.625 1.42969 9.46094C0.648438 11.2969 0.257812 13.2565 0.257812 15.3398ZM4.49609 15.3398C4.49609 13.8294 4.77604 12.4167 5.33594 11.1016C5.90885 9.78646 6.69661 8.6276 7.69922 7.625C8.70182 6.6224 9.86068 5.84115 11.1758 5.28125C12.4909 4.72135 13.9036 4.44141 15.4141 4.44141C16.9245 4.44141 18.3372 4.72135 19.6523 5.28125C20.9674 5.84115 22.1263 6.6224 23.1289 7.625C24.1315 8.6276 24.9128 9.78646 25.4727 11.1016C26.0456 12.4167 26.332 13.8294 26.332 15.3398C26.332 16.8503 26.0456 18.2695 25.4727 19.5977C24.9128 20.9128 24.1315 22.0716 23.1289 23.0742C22.1263 24.0638 20.9674 24.8451 19.6523 25.418C18.3372 25.9779 16.9245 26.2578 15.4141 26.2578C13.9036 26.2578 12.4909 25.9779 11.1758 25.418C9.86068 24.8451 8.70182 24.0638 7.69922 23.0742C6.69661 22.0716 5.90885 20.9128 5.33594 19.5977C4.77604 18.2695 4.49609 16.8503 4.49609 15.3398Z" fill="white"/>
</svg>
