<svg width="50" height="40" viewBox="0 0 50 40" fill="none" xmlns="http://www.w3.org/2000/svg">
<path d="M14.9878 30.9141H36.6675C36.993 30.9141 37.2729 30.7969 37.5073 30.5625C37.7547 30.3281 37.8784 30.0286 37.8784 29.6641C37.8784 29.3125 37.7547 29.013 37.5073 28.7656C37.2729 28.5182 36.993 28.3945 36.6675 28.3945H15.3003C14.7664 28.3945 14.3302 28.2253 13.9917 27.8867C13.6662 27.5482 13.4513 27.0859 13.3472 26.5L10.2808 5.67969C10.1896 5.04167 9.98779 4.5599 9.67529 4.23438C9.37581 3.89583 8.78988 3.72656 7.91748 3.72656H1.33545C1.00993 3.72656 0.72347 3.85677 0.476074 4.11719C0.228678 4.36458 0.10498 4.65755 0.10498 4.99609C0.10498 5.34766 0.228678 5.64714 0.476074 5.89453C0.72347 6.14193 1.00993 6.26562 1.33545 6.26562H7.72217L10.73 26.8516C10.9123 28.1146 11.3485 29.1107 12.0386 29.8398C12.7287 30.556 13.7118 30.9141 14.9878 30.9141ZM9.98779 10.7773H28.7183C28.6792 10.3997 28.6662 9.98307 28.6792 9.52734C28.7052 9.05859 28.7508 8.63542 28.8159 8.25781H9.98779V10.7773ZM11.6479 24.3711H36.6284C37.605 24.3711 38.3927 24.1628 38.9917 23.7461C39.6037 23.3164 40.0724 22.6849 40.3979 21.8516C39.7078 21.8385 39.0243 21.7669 38.3472 21.6367C37.6831 21.5065 37.0386 21.3047 36.4136 21.0312C36.2834 21.3047 36.1141 21.513 35.9058 21.6562C35.7104 21.7865 35.45 21.8516 35.1245 21.8516H11.6479V24.3711ZM16.6284 39.8594C17.4487 39.8594 18.1453 39.5729 18.7183 39C19.2912 38.4401 19.5776 37.75 19.5776 36.9297C19.5776 36.1094 19.2912 35.4128 18.7183 34.8398C18.1453 34.2669 17.4487 33.9805 16.6284 33.9805C15.8081 33.9805 15.1115 34.2669 14.5386 34.8398C13.9657 35.4128 13.6792 36.1094 13.6792 36.9297C13.6792 37.75 13.9657 38.4401 14.5386 39C15.1115 39.5729 15.8081 39.8594 16.6284 39.8594ZM33.7964 39.8594C34.6167 39.8594 35.3068 39.5729 35.8667 39C36.4396 38.4401 36.7261 37.75 36.7261 36.9297C36.7261 36.1094 36.4396 35.4128 35.8667 34.8398C35.3068 34.2669 34.6167 33.9805 33.7964 33.9805C32.9761 33.9805 32.2729 34.2669 31.687 34.8398C31.1011 35.4128 30.8081 36.1094 30.8081 36.9297C30.8081 37.75 31.1011 38.4401 31.687 39C32.2729 39.5729 32.9761 39.8594 33.7964 39.8594ZM40.3589 19.4688C41.6089 19.4688 42.7938 19.2279 43.9136 18.7461C45.0334 18.2513 46.0229 17.5742 46.8823 16.7148C47.7417 15.8555 48.4123 14.8659 48.894 13.7461C49.3888 12.6263 49.6362 11.4284 49.6362 10.1523C49.6362 8.45964 49.2131 6.91016 48.3667 5.50391C47.5334 4.09766 46.4071 2.97135 44.9878 2.125C43.5815 1.27865 42.0386 0.855469 40.3589 0.855469C38.6532 0.855469 37.0972 1.27865 35.6909 2.125C34.2847 2.97135 33.1584 4.09766 32.312 5.50391C31.4657 6.91016 31.0425 8.45964 31.0425 10.1523C31.0425 11.4414 31.2834 12.6458 31.7651 13.7656C32.2469 14.8854 32.9175 15.875 33.7769 16.7344C34.6362 17.5938 35.6258 18.2643 36.7456 18.7461C37.8654 19.2279 39.0698 19.4688 40.3589 19.4688ZM40.3589 16.0117C40.0334 16.0117 39.7729 15.9141 39.5776 15.7188C39.3823 15.5234 39.2847 15.263 39.2847 14.9375V11.2266H35.5737C35.2612 11.2266 35.0008 11.1289 34.7925 10.9336C34.5972 10.7383 34.4995 10.4779 34.4995 10.1523C34.4995 9.82682 34.5972 9.56641 34.7925 9.37109C35.0008 9.17578 35.2612 9.07812 35.5737 9.07812H39.2847V5.38672C39.2847 5.0612 39.3823 4.80078 39.5776 4.60547C39.7729 4.41016 40.0334 4.3125 40.3589 4.3125C40.6844 4.3125 40.9448 4.41016 41.1401 4.60547C41.3354 4.80078 41.4331 5.0612 41.4331 5.38672V9.07812H45.1245C45.45 9.07812 45.7104 9.17578 45.9058 9.37109C46.1011 9.56641 46.1987 9.82682 46.1987 10.1523C46.1987 10.4779 46.1011 10.7383 45.9058 10.9336C45.7104 11.1289 45.45 11.2266 45.1245 11.2266H41.4331V14.9375C41.4331 15.263 41.3354 15.5234 41.1401 15.7188C40.9448 15.9141 40.6844 16.0117 40.3589 16.0117Z" fill="white"/>
</svg>
